<?xml version="1.0" standalone="no"?>
<!DOCTYPE svg PUBLIC "-//W3C//DTD SVG 20010904//EN"
 "http://www.w3.org/TR/2001/REC-SVG-20010904/DTD/svg10.dtd">
<svg version="1.0" xmlns="http://www.w3.org/2000/svg"
 width="494.000000pt" height="505.000000pt" viewBox="0 0 494.000000 505.000000"
 preserveAspectRatio="xMidYMid meet">

<g transform="translate(0.000000,505.000000) scale(0.100000,-0.100000)"
fill="#000000" stroke="none">
<path d="M2335 4864 c-166 -19 -265 -39 -418 -83 -431 -124 -793 -351 -1100
-690 -320 -352 -531 -809 -592 -1284 -19 -151 -19 -437 0 -592 126 -1011 873
-1826 1861 -2034 195 -41 314 -54 504 -53 386 1 748 90 1090 268 577 301 1011
831 1186 1453 66 235 66 231 71 579 6 381 -1 458 -62 685 -215 808 -824 1433
-1624 1668 -303 89 -617 117 -916 83z m619 -308 c416 -74 794 -273 1101 -581
181 -181 304 -354 408 -575 92 -195 146 -372 183 -605 24 -150 24 -461 0 -600
-78 -457 -257 -821 -555 -1129 -379 -391 -865 -619 -1374 -644 -405 -20 -757
53 -1092 227 -590 306 -996 870 -1106 1536 -19 111 -19 554 0 655 123 677 541
1237 1145 1535 310 152 607 218 961 210 136 -2 216 -10 329 -29z"/>
<path d="M2595 3920 c-165 -19 -417 -81 -574 -142 l-103 -40 -162 -162 c-88
-89 -179 -174 -201 -189 -23 -15 -126 -64 -230 -109 -291 -127 -374 -178 -408
-250 -30 -64 19 -180 106 -251 72 -58 220 -135 200 -105 -40 64 -88 118 -113
127 -18 6 -41 28 -60 57 -33 53 -34 53 -21 6 13 -42 -6 -32 -25 14 -45 107 12
173 231 264 235 99 331 142 350 159 11 10 67 46 125 81 58 35 164 103 236 150
72 48 164 101 205 117 224 93 719 149 985 112 337 -47 603 -203 767 -451 71
-108 106 -180 150 -308 46 -133 84 -354 88 -515 1 -38 4 -28 11 40 17 172 -7
416 -58 593 -31 106 -111 269 -174 353 -156 208 -404 361 -700 431 -69 16
-128 21 -315 23 -126 2 -266 -1 -310 -5z"/>
<path d="M2535 3654 c-109 -17 -238 -51 -284 -74 -29 -14 -41 -32 -71 -101
-51 -120 -71 -131 -204 -123 -99 6 -102 6 -171 -26 -168 -77 -359 -161 -469
-204 -134 -54 -207 -95 -230 -131 -22 -33 -20 -88 4 -116 l19 -24 1 23 c1 95
117 160 395 222 234 53 301 62 440 64 224 2 255 -23 255 -207 0 -162 -66 -445
-133 -577 l-24 -45 -109 -5 -109 -5 35 -26 c116 -87 225 -90 345 -9 l40 28 54
243 c63 288 111 453 143 486 27 29 194 84 347 114 129 25 422 36 559 21 108
-13 265 -64 348 -113 66 -39 165 -133 189 -179 9 -18 19 -30 22 -27 10 11 -91
230 -145 317 -196 310 -402 441 -754 479 -132 15 -383 12 -493 -5z m651 -348
c119 -7 267 -43 362 -87 47 -22 83 -41 81 -44 -3 -2 -47 9 -98 25 -187 59
-440 76 -673 45 -117 -15 -372 -74 -433 -100 -35 -14 -36 -14 -45 11 -6 14
-10 29 -10 34 0 13 149 57 267 80 157 30 353 49 438 43 17 -1 66 -4 111 -7z"/>
<path d="M1305 3001 c-22 -10 -47 -26 -55 -36 -13 -16 -12 -20 15 -42 55 -46
133 -76 209 -80 l71 -4 -33 17 c-37 19 -82 72 -108 127 -20 43 -38 46 -99 18z
m120 -120 c31 -17 35 -21 17 -21 -36 0 -87 25 -131 65 -37 34 -40 39 -24 50
15 11 23 7 57 -31 23 -24 59 -52 81 -63z"/>
<path d="M1975 3002 c-150 -52 -238 -142 -462 -475 -162 -241 -337 -384 -514
-421 -50 -11 -60 -15 -44 -22 25 -10 251 -12 288 -1 47 13 30 -7 -52 -61 -88
-58 -128 -77 -216 -103 -85 -25 -28 -24 95 1 118 24 204 66 280 136 76 71 118
139 258 414 63 124 133 252 155 285 63 94 163 187 247 229 59 29 67 36 44 36
-16 -1 -52 -8 -79 -18z"/>
<path d="M2145 2895 c-43 -182 -90 -308 -140 -377 -31 -42 -40 -47 -92 -58
-91 -18 -93 -22 -13 -36 113 -19 127 -18 147 12 22 34 88 280 104 384 11 79 8
131 -6 75z"/>
<path d="M2855 2845 c-194 -24 -205 -33 -35 -27 381 12 659 -63 830 -225 146
-137 213 -359 164 -547 -94 -365 -598 -680 -1424 -891 -80 -21 -188 -45 -240
-54 l-95 -17 -121 -155 c-67 -84 -117 -155 -110 -157 12 -3 247 65 416 120
528 171 990 376 1265 559 300 200 421 383 433 654 6 151 -9 236 -65 347 -97
194 -252 307 -513 375 -119 31 -339 39 -505 18z"/>
<path d="M4285 2795 c15 -196 16 -274 6 -398 -34 -416 -217 -766 -540 -1030
-32 -26 -37 -39 -67 -165 -18 -75 -31 -139 -28 -141 5 -5 38 24 152 134 78 74
183 201 249 300 204 307 306 700 273 1051 -12 134 -53 360 -45 249z"/>
<path d="M3600 1929 c-48 -38 -136 -90 -245 -144 -233 -117 -433 -191 -810
-299 l-209 -61 -48 -75 c-26 -41 -47 -78 -47 -81 -2 -17 457 131 641 207 278
114 536 264 685 395 60 54 123 120 111 118 -2 0 -37 -27 -78 -60z"/>
</g>
</svg>
